<svg width="25" height="25" viewBox="0 0 25 25" fill="none" xmlns="http://www.w3.org/2000/svg">
<path d="M25 2.95962C24.0703 3.46154 23.0797 3.79423 22.0469 3.95577C23.1094 3.175 23.9203 1.94808 24.3016 0.469231C23.3109 1.19615 22.2172 1.70962 21.0516 1.99615C20.1109 0.763462 18.7703 0 17.3078 0C14.4703 0 12.1859 2.83462 12.1859 6.30962C12.1859 6.80962 12.2203 7.29038 12.3047 7.74808C8.04375 7.49231 4.27344 4.97885 1.74062 1.15C1.29844 2.09423 1.03906 3.175 1.03906 4.33846C1.03906 6.52308 1.95313 8.45962 3.31562 9.58077C2.49219 9.56154 1.68437 9.26731 1 8.80385C1 8.82308 1 8.84808 1 8.87308C1 11.9385 2.77656 14.4846 5.10625 15.0712C4.68906 15.2115 4.23437 15.2788 3.7625 15.2788C3.43437 15.2788 3.10312 15.2558 2.79219 15.1712C3.45625 17.6692 5.34062 19.5058 7.58125 19.5654C5.8375 21.2442 3.62344 22.2558 1.22656 22.2558C0.80625 22.2558 0.403125 22.2327 0 22.1692C2.27031 23.9712 4.96094 25 7.8625 25C17.2937 25 22.45 15.3846 22.45 7.05C22.45 6.77115 22.4422 6.50192 22.4312 6.23462C23.4484 5.34615 24.3031 4.23654 25 2.95962Z" fill="#767676"/>
</svg>
