<svg width="30" height="25" viewBox="0 0 30 25" fill="none" xmlns="http://www.w3.org/2000/svg">
<path fill-rule="evenodd" clip-rule="evenodd" d="M25.23 0.209091C27.0281 0.331818 27.9112 0.654545 28.725 2.40909C29.5725 4.16136 30 7.17954 30 12.4955V12.5023V12.5136C30 17.8045 29.5725 20.8455 28.7269 22.5795C27.9131 24.3341 27.03 24.6523 25.2319 24.8C23.4337 24.925 18.9169 25 15.0037 25C11.0831 25 6.56437 24.925 4.76813 24.7977C2.97375 24.65 2.09063 24.3318 1.26937 22.5773C0.43125 20.8432 0 17.8023 0 12.5114V12.5068V12.5V12.4932C0 7.17954 0.43125 4.16136 1.26937 2.40909C2.09063 0.652273 2.97563 0.331818 4.77 0.206818C6.56437 0.0613636 11.0831 0 15.0037 0C18.9169 0 23.4338 0.0613636 25.23 0.209091ZM20.625 12.5L11.25 5.68182V19.3182L20.625 12.5Z" fill="#767676"/>
</svg>
