<svg width="25" height="25" viewBox="0 0 25 25" fill="none" xmlns="http://www.w3.org/2000/svg">
<path fill-rule="evenodd" clip-rule="evenodd" d="M5.46875 2.73438C5.46875 4.24453 4.24453 5.46875 2.73438 5.46875C1.22422 5.46875 0 4.24453 0 2.73438C0 1.22422 1.22422 0 2.73438 0C4.24453 0 5.46875 1.22422 5.46875 2.73438ZM0 7.8125H5.59063V25H0V7.8125ZM20.8188 8.01406C20.799 8.00781 20.7795 8.00139 20.7601 7.99496C20.7212 7.98212 20.6823 7.96927 20.6406 7.95781C20.5656 7.94063 20.4906 7.92656 20.4141 7.91406C20.1172 7.85469 19.7922 7.8125 19.4109 7.8125C16.1516 7.8125 14.0844 10.1828 13.4031 11.0984V7.8125H7.8125V25H13.4031V15.625C13.4031 15.625 17.6281 9.74062 19.4109 14.0625V25H25V13.4016C25 10.8047 23.2203 8.64062 20.8188 8.01406Z" fill="#767676"/>
</svg>
