<svg width="25" height="25" viewBox="0 0 25 25" fill="none" xmlns="http://www.w3.org/2000/svg">
<path fill-rule="evenodd" clip-rule="evenodd" d="M7.8125 0H17.1875C21.5016 0 25 3.49844 25 7.8125V17.1875C25 21.5016 21.5016 25 17.1875 25H7.8125C3.49844 25 0 21.5016 0 17.1875V7.8125C0 3.49844 3.49844 0 7.8125 0ZM17.1875 22.6562C20.2031 22.6562 22.6562 20.2031 22.6562 17.1875V7.8125C22.6562 4.79688 20.2031 2.34375 17.1875 2.34375H7.8125C4.79688 2.34375 2.34375 4.79688 2.34375 7.8125V17.1875C2.34375 20.2031 4.79688 22.6562 7.8125 22.6562H17.1875ZM6.25 12.5C6.25 9.04844 9.04844 6.25 12.5 6.25C15.9516 6.25 18.75 9.04844 18.75 12.5C18.75 15.9516 15.9516 18.75 12.5 18.75C9.04844 18.75 6.25 15.9516 6.25 12.5ZM8.59375 12.5C8.59375 14.6531 10.3469 16.4062 12.5 16.4062C14.6531 16.4062 16.4062 14.6531 16.4062 12.5C16.4062 10.3453 14.6531 8.59375 12.5 8.59375C10.3469 8.59375 8.59375 10.3453 8.59375 12.5ZM20.0517 5.78124C20.0517 6.24119 19.6789 6.61405 19.2189 6.61405C18.759 6.61405 18.3861 6.24119 18.3861 5.78124C18.3861 5.32129 18.759 4.94843 19.2189 4.94843C19.6789 4.94843 20.0517 5.32129 20.0517 5.78124Z" fill="#767676"/>
</svg>
