<svg width="65" height="65" viewBox="0 0 65 65" fill="none" xmlns="http://www.w3.org/2000/svg">
<path fill-rule="evenodd" clip-rule="evenodd" d="M64.3186 40.1549C63.9055 39.9907 63.4339 40.0934 63.1269 40.4147L58.5001 45.2777V16.3926H58.5056L62.9202 11.6263C63.3263 11.1874 63.2995 10.5016 62.8601 10.0955L62.8592 10.0945L61.2703 8.6158L63.4781 6.23263C63.8837 5.79329 63.8564 5.10799 63.4171 4.70237L58.6504 0.288097C58.2115 -0.118023 57.5261 -0.0917419 57.12 0.347602L49.4175 8.6639H11.9167C11.9133 5.67378 9.49024 3.25094 6.4999 3.24747H5.41683C2.42649 3.25094 0.00347138 5.67378 0 8.6639V55.2438C0 55.8418 0.485001 56.3268 1.08356 56.3268H17.4828L15.2076 59.0586C14.8252 59.5187 14.8877 60.2016 15.3474 60.5839L20.3428 64.7428C20.8025 65.1256 21.4858 65.0631 21.8687 64.6034L21.8692 64.6029L27.4139 57.9419C27.7968 57.4807 28.0433 56.9209 28.1246 56.3268H47.9754L41.4646 63.1634C41.0525 63.5968 41.0698 64.2826 41.5033 64.6947C41.7046 64.8861 41.9719 64.9932 42.2501 64.9927H63.9164C64.515 64.9927 65 64.5077 65 63.9097V41.1615C65 40.7182 64.7302 40.3195 64.3186 40.1549ZM60.5943 10.9385L58.5001 13.2036V11.6104L59.7999 10.2021L60.5943 10.9385ZM56.3335 10.7609V10.7456H56.3464L58.2085 8.73528L55.0267 5.79178L43.9898 17.7185L47.1715 20.662L56.3335 10.7609ZM45.0907 21.6865L42.5987 22.4135L43.1308 19.8721L45.0907 21.6865ZM61.1507 5.55376L57.9705 2.61174L56.4981 4.20201L59.6789 7.147L61.1507 5.55376ZM5.41683 5.41392H6.4999C8.2951 5.41392 9.7501 6.86881 9.7501 8.66388V49.8556C8.81779 49.1386 7.6757 48.7478 6.4999 48.7439H5.41683C4.24053 48.7478 3.09895 49.1386 2.16663 49.8556V8.66388C2.16663 6.86881 3.62164 5.41392 5.41683 5.41392ZM6.4999 50.9104H5.41683C3.62164 50.9104 2.16663 52.3657 2.16663 54.1603H9.7501C9.7501 52.3657 8.2951 50.9104 6.4999 50.9104ZM25.7497 56.5564L25.0564 57.3885L21.7263 54.6165L22.4186 53.7834C22.8015 53.3238 23.4843 53.2613 23.9441 53.6441C23.9443 53.6441 23.9444 53.6442 23.9445 53.6444C23.9447 53.6445 23.9448 53.6446 23.945 53.6446L25.6098 55.0271C26.07 55.4094 26.133 56.0922 25.7507 56.5524L25.7497 56.5534V56.5564ZM17.5671 59.6124L20.8977 62.3844L23.6698 59.0536L20.3398 56.2812L17.5671 59.6124ZM27.6693 54.1603C27.4893 53.8603 27.2617 53.592 26.9954 53.3654L25.3306 51.9799C23.951 50.8315 21.9019 51.0185 20.7534 52.398L19.2835 54.1603H11.9167V10.8304H47.413L41.6639 17.0427C41.5816 17.1354 41.5162 17.2425 41.471 17.358C41.4581 17.3893 41.4482 17.4185 41.4373 17.4513C41.4333 17.4637 41.4284 17.4761 41.4235 17.4888L41.4234 17.4888C41.4155 17.509 41.4075 17.5296 41.4026 17.5509L40.1093 23.734C39.9873 24.3196 40.3632 24.8933 40.9488 25.0153C41.1229 25.0515 41.3029 25.0446 41.473 24.995L47.54 23.2272C47.5551 23.2224 47.5689 23.2155 47.5826 23.2087C47.5886 23.2057 47.5946 23.2027 47.6007 23.1999C47.6066 23.1972 47.6127 23.1947 47.6188 23.1925C47.6461 23.1826 47.6744 23.1687 47.7036 23.1543C47.8251 23.0993 47.9352 23.0214 48.0285 22.9257L56.3335 13.9509V47.5523L50.0394 54.1603H27.6693ZM44.7773 62.8262H62.8334V43.8694L44.7773 62.8262ZM52.0002 60.6597C51.5618 60.6597 51.1666 60.3959 50.999 59.9913C50.8313 59.5867 50.9241 59.1205 51.234 58.8106L58.8175 51.2282C59.0203 51.0249 59.296 50.9109 59.5832 50.9109C60.1812 50.9109 60.6667 51.3953 60.6667 51.9938V59.5767C60.6667 60.1748 60.1817 60.6597 59.5832 60.6597H52.0002ZM58.5001 58.4933V54.6086L54.6151 58.4933H58.5001ZM40.0835 41.1615H47.6664C48.265 41.1615 48.75 41.6464 48.75 42.2445C48.75 42.843 48.265 43.3279 47.6669 43.3279H17.3336C16.735 43.3279 16.25 42.843 16.25 42.2445C16.25 41.6464 16.735 41.1615 17.3336 41.1615H24.9165V29.2456C24.9175 28.9585 25.0311 28.6828 25.2329 28.4785L31.7328 21.9791C32.1558 21.5561 32.8417 21.5561 33.2647 21.9791L39.7646 28.4785C39.9674 28.6823 40.082 28.958 40.0835 29.2456V41.1615ZM36.385 28.1621L32.5 24.2775L28.615 28.1621H36.385ZM37.9168 30.3286V41.1615H27.0832V30.3286H37.9168ZM31.4164 17.3298H33.5836V19.4962H31.4164V17.3298ZM33.5836 47.6609V45.4944H31.4164V47.6609H33.5836Z" fill="black"/>
</svg>
